<svg id="Layer_1" enable-background="new 0 0 512 512" height="512" viewBox="0 0 512 512" width="512" xmlns="http://www.w3.org/2000/svg"><g><g><g><g><g><g><g><g><g><circle cx="256" cy="256" fill="#00c8c8" r="256"/></g></g></g></g></g></g></g></g><path d="m512 256c0-14.145-1.147-28.022-3.354-41.543l-125.587-125.588-254.118 334.262 85.515 85.515c13.522 2.207 27.399 3.354 41.544 3.354 141.385 0 256-114.615 256-256z" fill="#13aaaa"/><g><path d="m207.772 88.869-78.831 78.831v255.431h254.118v-334.262z" fill="#fff"/></g><g><path d="m256 88.869h127.059v334.262h-127.059z" fill="#e9edf5"/></g><g><path d="m207.772 167.7v-78.831l-78.831 78.831z" fill="#e9edf5"/></g><g><path d="m166.879 313.666h178.242v30h-178.242z" fill="#9196aa"/></g><g><path d="m256 313.666h89.121v30h-89.121z" fill="#707789"/></g><g><path d="m198.009 356.962h115.982v30h-115.982z" fill="#9196aa"/></g><g><path d="m256 356.962h57.991v30h-57.991z" fill="#707789"/></g><g><path d="m280.016 290.445-4.794-13.945h-38.204l-4.794 13.945h-28.326l36.461-96.891h31.377l36.606 96.891zm-24.016-72.196-12.3 36.461h24.695z" fill="#7584f2"/></g><g><path d="m256 218.249 12.395 36.461h-12.395v21.79h19.223l4.793 13.945h28.327l-36.607-96.891h-15.736z" fill="#606aea"/></g><path d="m359.21 153.759h-20.62v-20.62h-30v20.62h-20.62v30h20.62v20.62h30v-20.62h20.62z" fill="#606aea"/></g></svg>