<?xml version="1.0" encoding="iso-8859-1"?>
<!-- Generator: Adobe Illustrator 19.0.0, SVG Export Plug-In . SVG Version: 6.00 Build 0)  -->
<svg version="1.1" id="Layer_1" xmlns="http://www.w3.org/2000/svg" xmlns:xlink="http://www.w3.org/1999/xlink" x="0px" y="0px"
	 viewBox="0 0 512 512" style="enable-background:new 0 0 512 512;" xml:space="preserve">
<path style="fill:#3AB394;" d="M256,512L256,512C115.2,512,0,396.8,0,256l0,0C0,115.2,115.2,0,256,0l0,0c140.8,0,256,115.2,256,256
	l0,0C512,396.8,396.8,512,256,512z"/>
<path style="fill:#00875D;" d="M325.34,104.436c-43.204-11.348-52.26,27.4-52.26,27.4l30.516,13.58l-4.364,16.792
	c0,0-44.696-17.396-78.916-2.256c-2.176,0.964-7.104-15.144-7.104-15.144s35.288-6.664,32.256-14.052
	c-9.32-22.696-30.732-33.396-53.564-26.328c-3.416,1.064-37.544,11.732-25.876,54.008c2.28,8.26,31.964-7.068,31.964-7.068
	l4.06,14.636c-18.336,14.408-52.26,33.816-61.392,69.148c-19.968,77.276,21.816,118.112,21.816,118.112l11.668,13.628l-17.7,40.84
	l89.208,103.996c3.436,0.148,6.88,0.272,10.348,0.272l0,0c140.8,0,256-115.2,256-256l0,0c0-17.144-1.736-33.896-4.992-50.12
	C480.792,188.924,364.84,114.812,325.34,104.436z"/>
<g>
	<g>
		<path style="fill:#F7BE15;" d="M188.276,108.424c-20.544,8.564-30.252,32.16-21.688,52.7c0.56,1.344,1.192,2.64,1.876,3.884
			l73.952-30.832c-0.404-1.364-0.876-2.724-1.44-4.068C232.416,109.568,208.82,99.86,188.276,108.424"/>
		<path style="fill:#474341;" d="M169.628,167.804l-3.812-1.34c-0.736-1.34-1.42-2.732-2.02-4.176
			c-4.448-10.676-4.48-22.452-0.076-33.152c4.4-10.704,12.708-19.048,23.392-23.5c10.68-4.448,22.46-4.48,33.156-0.076
			c10.704,4.404,19.048,12.712,23.504,23.392c0.6,1.448,1.112,2.908,1.544,4.372l-1.74,3.652L169.628,167.804z M203.784,108.328
			c-4.864,0-9.724,0.964-14.348,2.892c-9.184,3.828-16.332,11.008-20.124,20.216c-3.788,9.208-3.764,19.34,0.068,28.528
			c0.16,0.396,0.336,0.792,0.512,1.176l68.764-28.668c-0.148-0.4-0.304-0.8-0.472-1.196c-3.828-9.184-11.012-16.332-20.22-20.124
			C213.396,109.268,208.588,108.328,203.784,108.328 M188.276,108.424h0.04H188.276z"/>
		
			<rect x="199.949" y="148.992" transform="matrix(0.3891 0.9212 -0.9212 0.3891 271.8195 -95.6883)" style="fill:#DD9D00;" width="16.212" height="16.212"/>
		<path style="fill:#474341;" d="M204.908,170.508l-3.956-1.608l-6.312-14.94l1.608-3.964l14.936-6.308l3.964,1.608l6.304,14.936
			l-1.612,3.968L204.908,170.508z M201.388,154.392l3.956,9.364l9.36-3.956l-3.952-9.36L201.388,154.392z"/>
		<path style="fill:#F7BE15;" d="M326.456,108.424c20.544,8.564,30.252,32.16,21.688,52.7c-0.56,1.344-1.192,2.64-1.876,3.884
			l-73.952-30.832c0.404-1.364,0.876-2.724,1.44-4.068C282.32,109.568,305.916,99.86,326.456,108.424"/>
		<path style="fill:#474341;" d="M345.108,167.804l-73.952-30.832l-1.74-3.652c0.44-1.468,0.944-2.932,1.552-4.376
			c4.452-10.68,12.796-18.988,23.5-23.392s22.476-4.368,33.152,0.076c10.684,4.456,18.988,12.8,23.396,23.5
			c4.404,10.7,4.376,22.476-0.076,33.156c-0.6,1.444-1.28,2.832-2.02,4.176L345.108,167.804z M276.072,132.468l68.768,28.668
			c0.176-0.384,0.348-0.776,0.512-1.168c3.836-9.192,3.852-19.324,0.064-28.532s-10.936-16.388-20.124-20.216
			c-9.184-3.828-19.316-3.86-28.528-0.068c-9.208,3.788-16.388,10.936-20.22,20.124C276.38,131.672,276.224,132.072,276.072,132.468
			"/>
		
			<rect x="298.576" y="149.003" transform="matrix(-0.3891 0.9212 -0.9212 -0.3891 570.7396 -64.2739)" style="fill:#DD9D00;" width="16.212" height="16.212"/>
		<path style="fill:#474341;" d="M309.828,170.508l-14.936-6.312l-1.608-3.964l6.312-14.936l3.956-1.608l14.932,6.308l1.612,3.964
			l-6.308,14.936L309.828,170.508z M300.028,159.804l9.364,3.956l3.952-9.364l-9.36-3.952L300.028,159.804z"/>
		<path style="fill:#F7BE15;" d="M374.092,274.812c0,65.936-53.452,119.388-119.388,119.388s-119.392-53.452-119.392-119.388
			S188.764,155.424,254.7,155.424S374.092,208.876,374.092,274.812"/>
		<path style="fill:#474341;" d="M254.704,397.224c-67.5,0-122.416-54.916-122.416-122.412S187.204,152.4,254.704,152.4
			S377.12,207.312,377.12,274.812S322.204,397.224,254.704,397.224 M254.704,158.444c-64.164,0-116.364,52.2-116.364,116.364
			c0,64.168,52.2,116.364,116.364,116.364s116.364-52.2,116.364-116.364C371.068,210.648,318.868,158.444,254.704,158.444"/>
		<path style="fill:#F4EDDD;" d="M355.516,274.812c0,55.676-45.132,100.812-100.812,100.812s-100.812-45.136-100.812-100.812
			S199.028,174,254.704,174S355.516,219.132,355.516,274.812"/>
		<g>
			<path style="fill:#474341;" d="M254.704,377.736c-56.756,0-102.932-46.172-102.932-102.924
				c0-56.756,46.172-102.932,102.932-102.932c56.752,0,102.928,46.176,102.928,102.932
				C357.632,331.564,311.456,377.736,254.704,377.736 M254.704,176.116c-54.424,0-98.696,44.276-98.696,98.696
				s44.272,98.692,98.696,98.692c54.42,0,98.692-44.272,98.692-98.692S309.124,176.116,254.704,176.116"/>
			<path style="fill:#474341;" d="M254.704,204.064c-1.672,0-3.028-1.352-3.028-3.024v-17c0-1.672,1.356-3.024,3.028-3.024
				c1.672,0,3.028,1.352,3.028,3.024v17C257.732,202.708,256.376,204.064,254.704,204.064"/>
			<path style="fill:#474341;" d="M254.704,368.604c-1.672,0-3.028-1.352-3.028-3.024v-17c0-1.672,1.356-3.024,3.028-3.024
				c1.672,0,3.028,1.352,3.028,3.024v17C257.732,367.252,256.376,368.604,254.704,368.604"/>
			<path style="fill:#474341;" d="M345.476,277.836h-17c-1.672,0-3.028-1.352-3.028-3.024s1.356-3.024,3.028-3.024h17
				c1.672,0,3.028,1.352,3.028,3.024C348.5,276.48,347.144,277.836,345.476,277.836"/>
			<path style="fill:#474341;" d="M180.932,277.836h-17c-1.672,0-3.028-1.352-3.028-3.024s1.356-3.024,3.028-3.024h17
				c1.672,0,3.028,1.352,3.028,3.024C183.956,276.48,182.604,277.836,180.932,277.836"/>
		</g>
		<path d="M300.748,201.04c0,1.552-1.256,2.808-2.808,2.808s-2.808-1.256-2.808-2.808s1.256-2.808,2.808-2.808
			C299.492,198.232,300.748,199.488,300.748,201.04"/>
		<path style="fill:#474341;" d="M297.94,205.984c-2.724,0-4.944-2.22-4.944-4.944s2.22-4.94,4.944-4.94s4.944,2.22,4.944,4.94
			C302.884,203.764,300.668,205.984,297.94,205.984 M297.94,200.368c-0.372,0-0.676,0.3-0.676,0.672c0,0.744,1.352,0.744,1.352,0
			C298.616,200.668,298.312,200.368,297.94,200.368"/>
		<path d="M328.044,233.996c0,1.552-1.256,2.808-2.808,2.808s-2.808-1.256-2.808-2.808s1.256-2.808,2.808-2.808
			C326.788,231.192,328.044,232.448,328.044,233.996"/>
		<path style="fill:#474341;" d="M325.236,238.94c-2.724,0-4.944-2.22-4.944-4.944s2.22-4.944,4.944-4.944s4.944,2.22,4.944,4.944
			C330.18,236.724,327.96,238.94,325.236,238.94 M325.236,233.324c-0.372,0-0.676,0.3-0.676,0.676c0,0.744,1.352,0.744,1.352,0
			C325.912,233.624,325.608,233.324,325.236,233.324"/>
		<path d="M184.4,311.24c0,1.552-1.256,2.808-2.808,2.808s-2.808-1.256-2.808-2.808s1.256-2.808,2.808-2.808
			C183.144,308.432,184.4,309.688,184.4,311.24"/>
		<path style="fill:#474341;" d="M181.592,316.184c-2.724,0-4.944-2.22-4.944-4.94c0-2.724,2.22-4.944,4.944-4.944
			s4.944,2.22,4.944,4.944C186.536,313.964,184.32,316.184,181.592,316.184 M181.592,310.564c-0.372,0-0.676,0.3-0.676,0.676
			c0,0.744,1.352,0.744,1.352,0C182.268,310.868,181.964,310.564,181.592,310.564"/>
		<path d="M211.696,344.2c0,1.552-1.256,2.808-2.808,2.808s-2.808-1.256-2.808-2.808s1.256-2.808,2.808-2.808
			S211.696,342.648,211.696,344.2"/>
		<path style="fill:#474341;" d="M208.888,349.14c-2.724,0-4.944-2.22-4.944-4.944s2.22-4.94,4.944-4.94s4.944,2.22,4.944,4.94
			C213.832,346.924,211.612,349.14,208.888,349.14 M208.888,343.524c-0.372,0-0.676,0.3-0.676,0.672c0,0.744,1.352,0.744,1.352,0
			C209.564,343.824,209.26,343.524,208.888,343.524"/>
		<path d="M328.988,319.952c-1.552,0-2.808-1.256-2.808-2.808s1.256-2.808,2.808-2.808s2.808,1.256,2.808,2.808
			C331.796,318.696,330.54,319.952,328.988,319.952"/>
		<path style="fill:#474341;" d="M328.992,322.088c-2.724,0-4.944-2.22-4.944-4.944s2.22-4.94,4.944-4.94s4.94,2.22,4.94,4.94
			C333.928,319.868,331.712,322.088,328.992,322.088 M328.992,316.472c-0.372,0-0.676,0.3-0.676,0.672c0,0.744,1.344,0.744,1.344,0
			C329.66,316.772,329.364,316.472,328.992,316.472"/>
		<path d="M296.032,347.248c-1.552,0-2.808-1.256-2.808-2.808s1.256-2.808,2.808-2.808s2.808,1.256,2.808,2.808
			C298.836,345.992,297.58,347.248,296.032,347.248"/>
		<path style="fill:#474341;" d="M296.032,349.384c-2.724,0-4.944-2.22-4.944-4.94c0-2.724,2.22-4.944,4.944-4.944
			s4.94,2.22,4.94,4.944C300.972,347.164,298.756,349.384,296.032,349.384 M296.032,343.768c-0.372,0-0.676,0.3-0.676,0.676
			c0,0.744,1.344,0.744,1.344,0C296.704,344.068,296.404,343.768,296.032,343.768"/>
		<path d="M218.788,203.604c-1.552,0-2.808-1.256-2.808-2.808s1.256-2.808,2.808-2.808s2.808,1.256,2.808,2.808
			S220.34,203.604,218.788,203.604"/>
		<path style="fill:#474341;" d="M218.788,205.74c-2.724,0-4.94-2.22-4.94-4.944s2.216-4.944,4.94-4.944s4.944,2.22,4.944,4.944
			C223.732,203.524,221.512,205.74,218.788,205.74 M218.788,200.124c-0.372,0-0.672,0.3-0.672,0.676c0,0.744,1.344,0.744,1.344,0
			C219.464,200.424,219.16,200.124,218.788,200.124"/>
		<path d="M185.832,230.9c-1.552,0-2.808-1.256-2.808-2.808s1.256-2.808,2.808-2.808s2.808,1.256,2.808,2.808
			C188.636,229.644,187.38,230.9,185.832,230.9"/>
		<path style="fill:#474341;" d="M185.828,233.036c-2.724,0-4.94-2.22-4.94-4.944s2.216-4.94,4.94-4.94s4.944,2.22,4.944,4.94
			C190.772,230.816,188.552,233.036,185.828,233.036 M185.828,227.42c-0.372,0-0.672,0.3-0.672,0.672c0,0.744,1.344,0.744,1.344,0
			C186.504,227.72,186.2,227.42,185.828,227.42"/>
		<path style="fill:#8B7A5C;" d="M251,267.516v-29.524c0-1.584,1.668-2.88,3.7-2.88c2.036,0,3.704,1.296,3.704,2.88v29.524"/>
		<path style="fill:#474341;" d="M260.54,267.516h-4.268v-29.524c0-0.22-0.608-0.748-1.564-0.748c-1.028,0-1.572,0.556-1.572,0.748
			v29.524h-4.268v-29.524c0-2.764,2.62-5.016,5.84-5.016c3.216,0,5.832,2.252,5.832,5.016L260.54,267.516L260.54,267.516z"/>
		<path style="fill:#F3D8C2;" d="M261.452,272.196h53.812c1.632,0,2.964,1.668,2.964,3.7c0,2.036-1.332,3.704-2.964,3.704h-53.812"
			/>
		<path style="fill:#474341;" d="M315.264,281.732h-53.812v-4.268h53.812c0.288,0,0.836-0.612,0.836-1.564
			c0-0.96-0.548-1.568-0.836-1.568h-53.812v-4.268h53.812c2.816,0,5.1,2.62,5.1,5.84
			C320.364,279.116,318.076,281.732,315.264,281.732"/>
		
			<rect x="229.102" y="273.566" transform="matrix(-0.7167 -0.6974 0.6974 -0.7167 188.0042 675.6277)" style="fill:#E9495B;" width="4.268" height="52.121"/>
		<path style="fill:#8B7A5C;" d="M262.896,274.76c0,4.524-3.668,8.196-8.196,8.196c-4.524,0-8.192-3.672-8.192-8.196
			s3.668-8.196,8.192-8.196C259.228,266.568,262.896,270.236,262.896,274.76"/>
		<path style="fill:#474341;" d="M254.704,285.088c-5.692,0-10.328-4.632-10.328-10.328s4.632-10.328,10.328-10.328
			c5.692,0,10.328,4.632,10.328,10.328C265.032,280.456,260.4,285.088,254.704,285.088 M254.704,268.704
			c-3.344,0-6.06,2.72-6.06,6.06s2.716,6.06,6.06,6.06c3.344,0,6.06-2.72,6.06-6.06S258.048,268.704,254.704,268.704"/>
		<path style="fill:#DD9D00;" d="M174.18,365.14l-16.02,38.956c-1.064,2.232-0.104,4.928,2.128,5.992
			c2.232,1.06,4.928,0.1,5.992-2.128l20.864-30.98"/>
		<path style="fill:#474341;" d="M162.204,413.544c-1.08,0-2.176-0.232-3.216-0.728c-1.808-0.86-3.176-2.376-3.852-4.272
			c-0.676-1.892-0.572-3.936,0.292-5.744l15.952-38.812c0.636-1.544,2.408-2.28,3.948-1.648c1.544,0.636,2.284,2.404,1.648,3.948
			l-16.02,38.956c-0.292,0.624-0.196,1.052-0.12,1.272c0.076,0.216,0.276,0.612,0.748,0.836c0.472,0.228,0.904,0.128,1.124,0.052
			c0.216-0.076,0.612-0.276,0.836-0.752l0.22-0.388l20.864-30.98c0.932-1.384,2.808-1.756,4.2-0.82
			c1.388,0.936,1.752,2.816,0.82,4.2l-20.756,30.812C167.568,412.048,164.94,413.544,162.204,413.544"/>
		<path style="fill:#DD9D00;" d="M335.228,365.14l16.024,38.956c1.06,2.232,0.1,4.928-2.132,5.992
			c-2.232,1.06-4.928,0.1-5.992-2.128l-20.864-30.98"/>
		<path style="fill:#474341;" d="M347.2,413.544c-2.736,0-5.364-1.496-6.688-4.064l-20.748-30.812
			c-0.936-1.388-0.568-3.264,0.82-4.2c1.388-0.932,3.268-0.56,4.196,0.82l21.084,31.368c0.224,0.476,0.624,0.676,0.84,0.752
			c0.208,0.076,0.644,0.18,1.12-0.052c0.72-0.344,1.04-1.24,0.696-1.96l-16.088-39.104c-0.636-1.544,0.1-3.312,1.648-3.948
			c1.54-0.632,3.312,0.1,3.948,1.648l16.024,38.956c1.708,3.6,0.112,8.092-3.624,9.872
			C349.38,413.312,348.284,413.544,347.2,413.544"/>
	</g>
</g>
<g>
</g>
<g>
</g>
<g>
</g>
<g>
</g>
<g>
</g>
<g>
</g>
<g>
</g>
<g>
</g>
<g>
</g>
<g>
</g>
<g>
</g>
<g>
</g>
<g>
</g>
<g>
</g>
<g>
</g>
</svg>
